PathFileType	4	(X/Y/Z)	KinectSkeleton.trc																																																	
DataRate	CameraRate	NumFrames	NumMarkers	Units	OrigDataRate	OrigDataStartFrame	OrigNumFrames																																													
60	60	23	17	mm	60	62	300																																													
Frame#	Time	Neck			ShoulderMid			R.Shoulder			L.Shoulder			R.Elbow			L.Elbow			R.Wrist			L.Wrist			HipCenter			R.Hip			L.Hip			R.Knee			L.Knee			R.Ankle			L.Ankle			R.Foot			L.Foot		
		X1	Y1	Z1	X2	Y2	Z2	X3	Y3	Z3	X4	Y4	Z4	X5	Y5	Z5	X6	Y6	Z6	X7	Y7	Z7	X8	Y8	Z8	X9	Y9	Z9	X10	Y10	Z10	X11	Y11	Z11	X12	Y12	Z12	X13	Y13	Z13	X14	Y14	Z14	X15	Y15	Z15	X16	Y16	Z16	X17	Y17	Z17
																																																				
62	4.054	-1035.627	285.868	187.534	-1035.627	285.868	187.534	-962.809	223.039	316.693	-1045.3	245.854	23.244	-968.256	-2.56	441.508	-1172.655	50.106	-74.328	-783.766	-69.601	353.516	-963.434	18.746	-93.496	-753.439	-106.955	102.747	-740.23	-112.886	176.648	-768.087	-100.378	20.794	-464.215	-349.975	134.786	-495.409	-331.125	-61.906	-386.687	-691.12	80.078	-414.227	-670.598	-92.806	-244.929	-752.818	48.167	-263.514	-741.432	-134.127
63	4.101	-1023.775	281.75	186.819	-1023.775	281.75	186.819	-957.584	220.196	312.06	-1019.41	232.802	30.447	-955.051	4.177	431.52	-1137.747	42.649	-61.95	-768.134	-47.823	362.518	-938.622	3.219	-73.972	-753.187	-94.353	111.151	-741.441	-100.496	182.01	-766.212	-87.541	32.572	-478.292	-328.942	143.381	-513.37	-317.67	-46.825	-401.448	-655.002	91.64	-431.503	-641.648	-76.035	-262.445	-708.731	66.596	-283.29	-702.785	-111.703
64	4.148	-1024.446	281.213	187.522	-1024.446	281.213	187.522	-955.313	220.315	312.803	-1022.009	232.665	30.124	-954.389	0.912	429.403	-1156.463	49.373	-58.131	-761.82	-25.04	357.302	-956.695	7.02	-71.793	-754.964	-100.42	114.567	-743.353	-105.871	185.979	-767.841	-94.376	35.374	-475.005	-331.803	147.632	-508.521	-320.634	-44.348	-398.767	-660.462	97.011	-434.196	-649.068	-68.595	-257.28	-709.596	70.545	-284.245	-707.777	-105.955
65	4.194	-1021.844	281.539	188.566	-1021.844	281.539	188.566	-953.993	220.962	314.511	-1021.448	230.878	31.802	-947.389	-0.635	426.405	-1147.154	42.153	-57.532	-751.942	-0.096	357.777	-944.332	17.484	-67.439	-748.841	-97.447	118.472	-737.653	-102.277	189.958	-761.248	-92.091	39.198	-469.127	-327.593	150.953	-500.84	-316.783	-40.579	-391.268	-655.977	102.26	-431.503	-646.323	-61.946	-250.428	-706.185	74.841	-282.935	-708.362	-99.062
66	4.241	-1026.694	284.166	191.35	-1026.694	284.166	191.35	-956.473	224.505	320.464	-1021.62	230.596	31.814	-931.183	-6.608	421.337	-1113.791	22.024	-67.519	-732.359	4.356	350.351	-906.267	22.048	-44.856	-738.711	-96.313	123.379	-728.012	-101.277	196.439	-750.576	-90.809	42.358	-454.799	-332.593	158.957	-483.264	-318.816	-37.603	-371.182	-666.202	105.98	-411.641	-654.945	-59.353	-227.233	-717.352	78.964	-260.205	-719.155	-96.45
67	4.288	-1023.081	281.945	192.364	-1023.081	281.945	192.364	-954.168	220.973	320.156	-1012.259	228.625	34.083	-920.856	-10.473	412.326	-1077.421	11.701	-63.622	-723.274	4.213	343.76	-871.91	29.114	-45.577	-743.226	-100.25	122.397	-732.452	-106.033	194.767	-755.173	-93.837	42.142	-463.518	-338.312	160.872	-493.214	-324.078	-35.764	-377.743	-668.432	108.265	-412.647	-655.054	-60.27	-231.773	-711.945	86.554	-257.951	-707.801	-95.645
68	4.333	-1026.219	284.058	195.838	-1026.219	284.058	195.838	-951.943	220.249	325.6	-1021.674	229.362	32.262	-906.471	-23.016	402.941	-1097.127	7.714	-67.4	-705.049	9.392	331.137	-886.296	30.623	-42.093	-733.383	-106.529	119.621	-721.035	-111.528	194.154	-747.076	-100.984	36.966	-442.23	-348.706	153.889	-475.09	-335.196	-47.105	-353.478	-689.462	101.386	-399.403	-678.647	-67.986	-203.571	-733.564	73.557	-242.204	-735.798	-110.197
69	4.382	-1024.366	283.924	196.605	-1024.366	283.924	196.605	-950.862	218.871	327.916	-1022.071	227.757	31.906	-895.898	-26.706	399.076	-1097.437	2.745	-65.9	-693.595	16.663	329.931	-885.945	31.512	-36.754	-733.003	-113.651	118.765	-720.452	-118.905	193.911	-746.921	-107.824	35.431	-441.087	-359.794	150.489	-475.199	-347.167	-49.055	-347.699	-702.388	97.063	-399.61	-693.566	-72.921	-195.27	-742.706	69.35	-240.607	-748.458	-117.423
70	4.457	-1026.816	284.184	198.714	-1026.816	284.184	198.714	-939.941	218.24	324.203	-1026.814	227.09	32.184	-902.617	-29.707	407.777	-1102.484	-1.886	-63.366	-758.9	45.251	258.335	-888.881	32.214	-38.673	-733.545	-116.017	113.188	-718.006	-120.081	188.678	-750.778	-111.511	29.472	-439.097	-366.109	137.796	-473.771	-347.827	-63.449	-346.775	-712.66	82.268	-391.023	-696.788	-82.291	-193.768	-755.997	52.482	-229.519	-751.99	-124.627
71	4.503	-1028.655	285.163	205.479	-1028.655	285.163	205.479	-937.757	218.567	326.87	-1032.316	229.72	40.053	-859.55	-29.832	361.322	-1071.331	-11.961	-40.784	-742.222	58.492	198.696	-859.773	32.318	-30.588	-740.111	-114.113	120.786	-724.185	-117.778	195.734	-757.773	-110.05	37.672	-444.014	-359.189	146.558	-480.405	-340.307	-60.014	-352.504	-703.234	88.599	-389.892	-684.97	-80.521	-201.394	-749.084	58.245	-230.812	-740.921	-126.455
72	4.548	-1027.826	284.764	205.139	-1027.826	284.764	205.139	-936.35	218.581	326.043	-1031.954	229.045	40.048	-855.934	-28.787	360.298	-1071.052	-12.633	-39.712	-739.457	57.917	196.564	-859.831	32.064	-30.156	-739.915	-114.22	120.695	-723.963	-117.833	195.541	-757.605	-110.213	37.694	-444.164	-359.002	146.63	-480.435	-339.952	-59.972	-353.039	-702.733	89.033	-389.406	-684.008	-80.554	-202.148	-748.623	58.732	-230.455	-739.563	-126.574
73	4.593	-1027.324	284.524	205.048	-1027.324	284.524	205.048	-935.491	218.467	325.608	-1032.029	228.55	40.185	-854.686	-28.61	359.639	-1071.62	-13.194	-38.543	-738.477	56.923	195.305	-860.482	31.343	-29.878	-739.878	-114.347	120.669	-723.896	-117.927	195.455	-757.6	-110.378	37.734	-444.301	-358.949	146.644	-480.534	-339.795	-59.984	-353.354	-702.491	89.216	-389.22	-683.514	-80.607	-202.581	-748.369	58.9	-230.356	-738.845	-126.732
74	4.642	-1009.789	280.654	213.97	-1009.789	280.654	213.97	-931.83	214.015	335.992	-1025.454	223.999	56.454	-862.126	-27.24	370.087	-1078.293	-7.792	-16.641	-699.451	28.867	247.297	-871.53	19.494	-25.718	-739.608	-109.54	128.14	-723.102	-113.745	200.157	-757.912	-104.878	48.276	-446.938	-338.828	148.953	-486.337	-319.874	-50.992	-368.165	-673.983	98.414	-404.985	-653.698	-73.875	-225.328	-725.231	66.2	-255.61	-712.173	-125.821
75	4.685	-1008.185	280.418	214.964	-1008.185	280.418	214.964	-929.467	215.099	334.05	-1020.716	226.158	58.918	-882.574	-25.521	381.07	-1062.849	-1.521	-21.099	-699.943	-1.545	283.985	-857.939	15.481	-21.666	-742.612	-104.481	134.523	-727.472	-108.24	205.726	-759.401	-100.313	55.562	-459.641	-335.298	156.783	-492.819	-311.377	-46.13	-376.044	-663.121	101.85	-419.421	-641.625	-70.42	-234.329	-709.759	68.84	-273.242	-698.951	-124.526
76	4.731	-1000.442	278.675	218.2	-1000.442	278.675	218.2	-916.185	218.847	333.874	-1014.716	220.863	65.276	-893.463	-18.602	397.592	-1050.235	-5.571	-13.347	-715.414	-33.211	295.12	-847.55	10.886	-16.438	-741.08	-104.763	141.236	-725.215	-107.492	211.514	-758.675	-101.737	63.301	-464.528	-336.6	161.374	-494.606	-307.833	-41.67	-383.172	-661.181	106.989	-424.535	-635.136	-64.303	-242.855	-706.723	74.134	-280.073	-691.617	-118.389
77	4.779	-996.744	279.702	221.618	-996.744	279.702	221.618	-913.535	220.425	337.834	-1012.861	221.296	69.388	-886.761	-16.483	400.481	-1049.491	-4.493	-9.408	-707.039	-38.691	303.07	-846.958	8.269	-16.399	-740.227	-104.641	144.185	-724.104	-107.434	214.285	-758.105	-101.544	66.446	-462.606	-334.675	163.728	-493.846	-305.866	-39.666	-384.587	-659.752	110.755	-426.407	-633.24	-61.423	-245.148	-707.297	78.091	-283.008	-691.849	-115.288
78	4.822	-995.846	277.956	221.952	-995.846	277.956	221.952	-912.924	220.029	338.019	-1012.655	220.179	70.404	-877.834	-14.041	403.119	-1049.365	-4.007	-9.809	-697.559	-36.655	308.686	-847.595	4.127	-20.239	-740.175	-104.658	144.873	-724.064	-107.391	214.668	-758.041	-101.627	67.473	-461.737	-331.552	164.811	-493.898	-303.694	-38.397	-384.578	-655.504	112.751	-427.182	-629.817	-59.586	-246.079	-703.987	80.388	-284.695	-689.552	-112.539
79	4.867	-995.658	278.056	222.051	-995.658	278.056	222.051	-912.728	220.072	338.086	-1012.581	220.316	70.502	-877.717	-14.014	403.186	-1049.529	-3.815	-9.766	-697.477	-36.753	308.71	-847.754	4.108	-20.333	-740.145	-104.648	144.89	-724.028	-107.39	214.685	-758.019	-101.608	67.491	-461.731	-331.586	164.788	-493.914	-303.713	-38.419	-384.618	-655.55	112.697	-427.263	-629.852	-59.638	-246.127	-704.051	80.319	-284.791	-689.615	-112.605
80	4.914	-988.421	277.385	227.983	-988.421	277.385	227.983	-907.985	218.993	342.933	-1005.214	219.233	78.977	-868.858	-10.632	408.807	-1054.14	-0.821	3.981	-689.993	-25.478	316.286	-856.103	4.736	-18.613	-739.437	-100.956	150.13	-721.984	-103.446	218.585	-758.793	-98.194	74.217	-461.147	-321.655	168.09	-501.585	-300.567	-32.297	-389.462	-642.63	119.968	-433.425	-621.77	-51.632	-253.953	-692.16	86.178	-293.547	-680.791	-105.393
81	4.96	-989.552	277.195	228.645	-989.552	277.195	228.645	-910.04	217.995	345.714	-999.957	216.314	78.252	-856.831	-10.613	412.982	-1046.28	-6.058	1.904	-675.744	-10.387	319.763	-846.003	9.063	-8.685	-739.57	-106.342	155.034	-722.55	-108.644	224.234	-758.445	-103.788	78.292	-454.029	-322.825	176.481	-498.159	-308.466	-25.989	-384.909	-647.607	130.209	-429.707	-632.726	-41.592	-247.022	-695.146	97.54	-286.83	-689.279	-94.31
82	5.006	-989.316	277.893	228.897	-989.316	277.893	228.897	-910.124	218.486	346.22	-999.565	217.055	78.327	-858.204	-10.294	414.61	-1046.092	-5.411	1.776	-676.774	-10.878	321.703	-845.596	9.131	-8.536	-739.55	-106.185	155.146	-722.523	-108.522	224.403	-758.433	-103.593	78.343	-453.76	-322.926	176.989	-498.056	-308.797	-25.603	-384.363	-647.939	130.816	-430.038	-633.433	-40.935	-246.283	-695.474	98.411	-287.046	-690.33	-93.372
83	5.052	-989.316	277.893	228.897	-989.316	277.893	228.897	-910.124	218.486	346.22	-999.565	217.055	78.327	-858.204	-10.294	414.61	-1046.092	-5.411	1.776	-676.774	-10.878	321.703	-845.596	9.131	-8.536	-739.55	-106.185	155.146	-722.523	-108.522	224.403	-758.433	-103.593	78.343	-453.76	-322.926	176.989	-498.056	-308.797	-25.603	-384.363	-647.939	130.816	-430.038	-633.433	-40.935	-246.283	-695.474	98.411	-287.046	-690.33	-93.372
84	5.098	-989.318	277.893	228.897	-989.318	277.893	228.897	-910.127	218.485	346.221	-999.565	217.056	78.326	-858.21	-10.295	414.613	-1046.088	-5.411	1.774	-676.779	-10.882	321.708	-845.592	9.135	-8.536	-739.55	-106.185	155.146	-722.523	-108.522	224.403	-758.433	-103.593	78.343	-453.76	-322.926	176.99	-498.056	-308.797	-25.603	-384.362	-647.939	130.816	-430.037	-633.433	-40.934	-246.282	-695.474	98.412	-287.046	-690.33	-93.371
